<?xml version="1.0" encoding="iso-8859-1"?>
<!-- Generator: Adobe Illustrator 19.0.0, SVG Export Plug-In . SVG Version: 6.00 Build 0)  -->
<svg version="1.1" id="Layer_1" xmlns="http://www.w3.org/2000/svg" xmlns:xlink="http://www.w3.org/1999/xlink" x="0px" y="0px"
	 viewBox="0 0 512 512" style="enable-background:new 0 0 512 512;" xml:space="preserve">
<path style="fill:#884D01;" d="M503.42,270.952c5.699-3.311,8.552-7.647,8.565-11.989l0.015-5.05c0,0.127-0.011,0.254-0.017,0.381
	c0.186-4.522-2.704-9.085-8.684-12.538L241.153,90.406c-11.55-6.669-30.214-6.665-41.684,0L0.052,206.294L0,251.1l304.019,175.495
	v-5.05l0,0v5.05l199.358-115.885c5.701-3.313,8.555-7.648,8.567-11.988l0.015-5.05c0,0.128-0.011,0.255-0.017,0.382
	c0.187-4.523-2.705-9.085-8.686-12.539l-9.902-5.717l0.017,0.996L503.42,270.952z"/>
<g style="enable-background:new    ;">
	<polygon style="fill:#D07400;" points="304.019,421.544 304.019,426.594 0,251.1 0.015,246.05 	"/>
	<path style="fill:#A66206;" d="M503.256,281.514c11.55,6.669,11.611,17.477,0.136,24.146L304.019,421.544L0.015,246.05
		l199.411-115.885c11.475-6.669,30.134-6.669,41.684,0L503.256,281.514z"/>
</g>
<g style="enable-background:new    ;">
	<path style="fill:#E0E0E2;" d="M484.825,273.113L300.417,380.266v34.705l184.346-107.152c5.699-3.311,8.552-7.647,8.565-11.989
		l0.063-34.705C493.378,265.467,490.524,269.801,484.825,273.113z"/>
</g>
<path style="fill:#D07400;" d="M503.299,241.756c11.55,6.669,11.606,17.479,0.136,24.146L304.019,381.789L0.052,206.294
	L199.469,90.406c11.47-6.665,30.134-6.669,41.684,0L503.299,241.756z"/>
<g>
	<path style="fill:#884D01;" d="M165.73,241.863l-11.602-6.698l-4.407,2.561l11.602,6.698c1.287,0.743,2.369,1.414,3.236,2.015
		c0.868,0.601,1.483,1.163,1.852,1.699c0.363,0.532,0.432,1.04,0.215,1.529c-0.216,0.489-0.779,0.994-1.674,1.514
		c-0.914,0.532-1.851,0.928-2.813,1.186c-0.956,0.262-1.7,0.416-2.205,0.462l2.608,2.658c2.306-0.251,4.417-0.928,6.332-2.042
		c1.876-1.09,3.087-2.118,3.633-3.086c0.553-0.963,0.614-1.903,0.196-2.827c-0.424-0.921-1.254-1.845-2.503-2.773
		C168.953,243.83,167.465,242.864,165.73,241.863"/>
	<path style="fill:#884D01;" d="M173.106,237.352c-0.94-0.543-1.722-1.163-2.345-1.853c-0.629-0.693-1.019-1.41-1.189-2.145
		c-0.157-0.736-0.048-1.471,0.34-2.207c0.395-0.74,1.122-1.418,2.183-2.033c1.021-0.593,2.156-1.005,3.391-1.244
		c1.242-0.235,2.492-0.312,3.763-0.231c1.271,0.08,2.522,0.297,3.761,0.651c1.226,0.354,2.338,0.813,3.32,1.379
		c0.948,0.546,1.729,1.167,2.351,1.857c0.623,0.697,1.013,1.414,1.183,2.165c0.164,0.747,0.048,1.487-0.327,2.215
		c-0.381,0.731-1.102,1.405-2.169,2.026c-1.041,0.605-2.189,1.025-3.43,1.252c-1.256,0.227-2.512,0.301-3.783,0.219
		c-1.277-0.077-2.522-0.297-3.741-0.655C175.193,238.388,174.093,237.922,173.106,237.352 M190.83,227.13
		c-1.435-0.828-3.114-1.49-5.038-1.987c-1.931-0.493-3.914-0.778-5.963-0.855c-2.055-0.073-4.089,0.089-6.115,0.485
		c-2.032,0.393-3.864,1.071-5.501,2.022c-1.598,0.928-2.762,1.969-3.493,3.127c-0.725,1.156-1.057,2.33-0.971,3.524
		c0.079,1.197,0.532,2.357,1.363,3.49s2,2.138,3.521,3.016c1.461,0.843,3.147,1.51,5.078,2.003c1.925,0.497,3.908,0.774,5.969,0.836
		c2.048,0.062,4.075-0.112,6.081-0.52c2.006-0.409,3.838-1.094,5.494-2.056c1.598-0.928,2.762-1.976,3.493-3.127
		c0.731-1.159,1.051-2.326,0.971-3.509c-0.079-1.183-0.538-2.33-1.363-3.451C193.527,229.009,192.35,228.007,190.83,227.13"/>
	<path style="fill:#884D01;" d="M213.889,213.914l-11.635-6.718l-4.374,2.542l11.635,6.718c0.94,0.543,1.768,1.128,2.476,1.745
		c0.702,0.621,1.184,1.252,1.434,1.903c0.25,0.651,0.227,1.306-0.049,1.969c-0.288,0.662-0.95,1.295-1.998,1.903
		c-1.021,0.593-2.089,0.975-3.212,1.14c-1.123,0.165-2.24,0.181-3.365,0.039s-2.216-0.42-3.283-0.829
		c-1.073-0.404-2.087-0.89-3.054-1.448l-11.635-6.718l-4.407,2.561l11.635,6.718c1.481,0.855,3.074,1.576,4.8,2.165
		c1.719,0.585,3.496,0.952,5.326,1.094s3.691,0.027,5.59-0.343c1.893-0.374,3.751-1.083,5.56-2.134
		c1.743-1.012,2.948-2.061,3.606-3.139c0.652-1.074,0.866-2.141,0.633-3.196c-0.226-1.06-0.843-2.092-1.846-3.1
		C216.739,215.775,215.45,214.816,213.889,213.914"/>
	<path style="fill:#884D01;" d="M214.986,204.304l5.335-3.1c0.385-0.224,0.856-0.389,1.406-0.501
		c0.551-0.112,1.143-0.154,1.754-0.131c0.625,0.023,1.244,0.119,1.863,0.277c0.626,0.162,1.2,0.4,1.733,0.708
		c0.514,0.297,0.922,0.616,1.229,0.963c0.295,0.347,0.489,0.69,0.564,1.032c0.075,0.335,0.037,0.667-0.121,0.982
		c-0.158,0.316-0.442,0.589-0.846,0.824l-5.527,3.212L214.986,204.304 M247.844,207.143l-13.762-1.949
		c0.726-1.04,0.846-2.122,0.374-3.246c-0.479-1.128-1.454-2.115-2.936-2.97c-0.921-0.532-2.014-0.955-3.291-1.271
		c-1.265-0.316-2.583-0.493-3.939-0.539c-1.364-0.043-2.693,0.066-4.021,0.327c-1.322,0.258-2.503,0.69-3.551,1.298l-10.028,5.827
		l22.823,13.177l4.407-2.561l-7.652-4.418l4.348-2.527l12.279,1.729L247.844,207.143"/>
	<polyline style="fill:#884D01;" points="270.385,194.043 247.596,180.886 243.195,183.444 258.139,192.071 231.345,190.292 
		227.925,192.279 250.747,205.455 255.155,202.894 240.524,194.447 266.813,196.119 270.385,194.043 	"/>
	<path style="fill:#884D01;" d="M271.449,183.223l-5.712-7.075l12.101,3.362L271.449,183.223 M294.08,180.273l-31.445-8.166
		l-3.89,2.261l14.167,18.207l4.534-2.634l-3.616-4.491l7.92-4.603l7.798,2.061L294.08,180.273"/>
	<polyline style="fill:#884D01;" points="312.539,169.545 308.65,167.3 297.091,174.017 278.157,163.087 273.75,165.648 
		296.572,178.825 312.539,169.545 	"/>
</g>
<polygon style="fill:#A66206;" points="0.052,206.294 0,251.1 304.019,426.594 304.019,381.789 "/>
<path style="fill:#884D01;" d="M503.42,270.952c5.699-3.311,8.552-7.647,8.565-11.989l0.015-5.05
	c-0.013,4.342-2.866,8.677-8.565,11.989L304.019,381.789v44.805l199.358-115.885c5.701-3.313,8.555-7.648,8.567-11.988l0.015-5.05
	c-0.013,4.34-2.866,8.676-8.567,11.988L307.928,419.272v-34.705L503.42,270.952z"/>
<g style="enable-background:new    ;">
	<polygon style="fill:#5E4C36;" points="499.632,266.859 499.499,313.706 485.998,321.552 486.13,274.705 	"/>
	<polygon style="fill:#6A563D;" points="499.632,266.859 486.13,274.705 181.599,98.883 195.1,91.037 	"/>
</g>
<g>
</g>
<g>
</g>
<g>
</g>
<g>
</g>
<g>
</g>
<g>
</g>
<g>
</g>
<g>
</g>
<g>
</g>
<g>
</g>
<g>
</g>
<g>
</g>
<g>
</g>
<g>
</g>
<g>
</g>
</svg>
