<?xml version="1.0" encoding="iso-8859-1"?>
<!-- Generator: Adobe Illustrator 19.0.0, SVG Export Plug-In . SVG Version: 6.00 Build 0)  -->
<svg version="1.1" id="Layer_1" xmlns="http://www.w3.org/2000/svg" xmlns:xlink="http://www.w3.org/1999/xlink" x="0px" y="0px"
	 viewBox="0 0 512.001 512.001" style="enable-background:new 0 0 512.001 512.001;" xml:space="preserve">
<path style="fill:#3E3D43;" d="M399.331,440.45c0.014,0.007,0.028,0.014,0.041,0.022l-11.84-6.913
	c-3.444-2.001-7.965-2.148-13.014-0.126l0.616-217.39c0.044-15.298-10.712-33.928-24.026-41.614l-14.429-8.33V88.437l3.102-1.802
	l0.091-31.929c0.022-7.862-5.505-17.434-12.347-21.385L272.756,1.699c-3.442-1.987-6.561-2.172-8.814-0.863l-17.339,10.077
	c0.007-0.004,0.015-0.007,0.022-0.011c-2.236,1.287-3.624,4.039-3.635,7.957v31.929l3.816,2.255v61.166L207.474,91.5
	c-6.699-3.867-12.769-4.227-17.152-1.679l-37.156,21.593l-1.238,0.72l0,0l-35.917,20.873c0.015-0.008,0.028-0.016,0.043-0.023
	c-4.351,2.505-7.052,7.86-7.074,15.484l-0.177,62.411c-1.56,2.185-2.462,5.242-2.473,9.056l-0.505,178.156
	c-0.032,11.562,8.098,25.646,18.161,31.457l108.573,62.684c5.209,3.007,9.911,3.202,13.244,1.091
	c-0.093,0.059-0.184,0.122-0.279,0.178l2.061-1.197l28.388,16.389c6.723,3.882,12.811,4.228,17.198,1.65
	c-0.016,0.009-0.03,0.02-0.046,0.029l35.917-20.873l0,0l1.238-0.72l17.604-10.231c0.649,5.703,3.053,9.771,6.619,11.843l11.84,6.913
	c-0.122-0.071-0.238-0.153-0.357-0.228c4.264,2.701,10.282,2.452,16.949-1.397c12.877-7.434,23.282-25.457,23.241-40.255
	C406.153,448.052,403.54,442.873,399.331,440.45z M275.745,49.662l0.023-8.293l27.967,16.147c1.813,1.047,3.28,3.588,3.275,5.672
	l-0.07,24.573l3.79,2.188v61.166l-37.974-21.924V51.399L275.745,49.662z"/>
<rect x="246.804" y="37.909" style="fill:#77767E;" width="25.951" height="126.527"/>
<rect x="258.475" y="37.909" style="fill:#57565C;" width="14.282" height="126.527"/>
<rect x="310.731" y="73.164" style="fill:#77767E;" width="25.951" height="126.527"/>
<rect x="322.402" y="73.164" style="fill:#57565C;" width="14.282" height="126.527"/>
<g style="enable-background:new    ;">
	<path style="fill:#5E4C36;" d="M367.435,467.188l-74.312,43.186c4.327-2.515,7.01-7.862,7.032-15.46l74.312-43.186
		C374.446,459.326,371.762,464.674,367.435,467.188z"/>
	<path style="fill:#A78967;" d="M116.01,133.006l74.312-43.186c4.383-2.547,10.453-2.188,17.152,1.679l-74.312,43.186
		C126.463,130.818,120.393,130.459,116.01,133.006z"/>
	<polygon style="fill:#6A563D;" points="300.823,259.228 375.135,216.042 374.467,451.727 300.154,494.913 	"/>
	<polygon style="fill:#B39A7C;" points="133.162,134.685 207.474,91.5 351.109,174.428 276.797,217.614 	"/>
	<path style="fill:#806749;" d="M276.797,217.614l74.312-43.186c13.313,7.686,24.069,26.317,24.025,41.614l-74.312,43.186
		C300.866,243.93,290.11,225.3,276.797,217.614z"/>
	<path style="fill:#957755;" d="M276.797,217.614c13.313,7.686,24.069,26.317,24.026,41.615l-0.668,235.685
		c-0.044,15.295-10.87,21.467-24.183,13.781l-143.635-82.927c-13.311-7.685-24.069-26.319-24.026-41.614l0.669-235.685
		c0.043-15.298,10.872-21.466,24.183-13.781L276.797,217.614z"/>
</g>
<g style="enable-background:new    ;">
	<path style="fill:#1D1D1F;" d="M331.518,488.06l-2.477,1.44c4.327-2.515,7.01-7.862,7.031-15.46l2.477-1.44
		C338.527,480.199,335.845,485.546,331.518,488.06z"/>
	<path style="fill:#57565C;" d="M151.927,112.133l2.477-1.44c4.383-2.547,10.453-2.188,17.152,1.679l-2.477,1.44
		C162.38,109.945,156.311,109.586,151.927,112.133z"/>
	<polygon style="fill:#2E2E30;" points="336.74,238.355 339.218,236.915 338.549,472.6 336.072,474.04 	"/>
	<polygon style="fill:#898890;" points="169.079,113.813 171.557,112.374 315.191,195.301 312.714,196.741 	"/>
	<path style="fill:#3E3D43;" d="M312.714,196.741l2.477-1.44c13.313,7.686,24.069,26.317,24.026,41.614l-2.477,1.44
		C336.783,223.057,326.028,204.427,312.714,196.741z"/>
	<path style="fill:#5E4C36;" d="M270.294,479.107l-24.77,14.396c3.271-1.901,5.3-5.942,5.315-11.686l24.77-14.396
		C275.594,473.164,273.565,477.206,270.294,479.107z"/>
	<path style="fill:#A78967;" d="M111.644,208.247l24.77-14.396c3.313-1.925,7.9-1.654,12.965,1.27l-24.77,14.396
		C119.545,206.593,114.958,206.323,111.644,208.247z"/>
	<polygon style="fill:#6A563D;" points="251.344,303.659 276.114,289.263 275.61,467.421 250.839,481.815 	"/>
	<polygon style="fill:#B39A7C;" points="124.609,209.517 149.38,195.122 257.953,257.807 233.183,272.202 	"/>
	<path style="fill:#806749;" d="M233.183,272.202l24.77-14.396c10.061,5.81,18.195,19.895,18.161,31.457l-24.77,14.396
		C251.378,292.097,243.245,278.011,233.183,272.202z"/>
	<path style="fill:#957755;" d="M233.183,272.202c10.061,5.81,18.194,19.895,18.161,31.457l-0.505,178.156
		c-0.032,11.562-8.218,16.226-18.28,10.418l-108.573-62.684c-10.064-5.811-18.195-19.895-18.161-31.457l0.505-178.156
		c0.032-11.562,8.216-16.228,18.28-10.418L233.183,272.202z"/>
	<path style="fill:#1D1D1F;" d="M259.146,485.585l-2.477,1.44c3.271-1.901,5.299-5.943,5.315-11.687l2.477-1.44
		C264.445,479.642,262.417,483.684,259.146,485.585z"/>
	<path style="fill:#57565C;" d="M122.79,201.77l2.477-1.44c3.313-1.926,7.902-1.654,12.965,1.269l-2.477,1.44
		C130.692,200.116,126.104,199.845,122.79,201.77z"/>
	<polygon style="fill:#2E2E30;" points="262.49,297.181 264.966,295.742 264.462,473.898 261.984,475.338 	"/>
	<polygon style="fill:#898890;" points="135.754,203.04 138.232,201.6 246.805,264.284 244.329,265.724 	"/>
	<path style="fill:#3E3D43;" d="M244.329,265.724l2.477-1.44c10.064,5.811,18.194,19.895,18.161,31.457l-2.477,1.44
		C262.522,285.619,254.392,271.535,244.329,265.724z"/>
	<polygon style="fill:#1D1D1F;" points="258.474,35.166 275.815,25.089 275.745,49.662 258.404,59.739 	"/>
	<path style="fill:#2E2E30;" d="M259.433,33.059l17.339-10.077c-0.59,0.343-0.955,1.072-0.958,2.108l-17.34,10.077
		C258.478,34.131,258.843,33.401,259.433,33.059z"/>
	<path style="fill:#3E3D43;" d="M246.603,10.913l17.339-10.077c2.253-1.309,5.372-1.124,8.814,0.863l-17.339,10.077
		C251.974,9.789,248.855,9.604,246.603,10.913z"/>
	<polygon style="fill:#1D1D1F;" points="322.533,64.782 339.873,54.706 339.782,86.635 322.443,96.711 	"/>
	<polygon style="fill:#3E3D43;" points="255.417,11.776 272.756,1.699 327.527,33.321 310.186,43.397 	"/>
	<path style="fill:#57565C;" d="M310.186,43.397l17.339-10.077c6.842,3.95,12.368,13.523,12.347,21.385l-17.339,10.077
		C322.556,56.92,317.028,47.348,310.186,43.397z"/>
	<path style="fill:#2E2E30;" d="M310.186,43.397c6.842,3.95,12.368,13.523,12.347,21.385l-0.091,31.929l-15.503-8.951l0.07-24.573
		c0.006-2.084-1.461-4.625-3.275-5.672L261.77,33.287c-1.815-1.048-3.29-0.205-3.296,1.878l-0.07,24.573l-15.415-8.953V18.857
		c0.022-7.862,5.587-11.031,12.427-7.081L310.186,43.397z"/>
</g>
<path style="fill:#3E3D43;" d="M387.533,433.559c-4.239-2.464-10.11-2.117-16.591,1.625c-12.877,7.434-23.282,25.458-23.241,40.255
	c0.021,7.351,2.616,12.523,6.801,14.956l11.84,6.913c-4.186-2.433-6.78-7.605-6.801-14.956
	c-0.042-14.797,10.363-32.82,23.241-40.255c6.48-3.741,12.352-4.089,16.591-1.625L387.533,433.559z"/>
<path style="fill:#2E2E30;" d="M382.782,442.096c12.877-7.434,23.35-1.466,23.392,13.331c0.042,14.797-10.363,32.82-23.241,40.255
	s-23.35,1.466-23.392-13.331C359.498,467.553,369.904,449.531,382.782,442.096z"/>
<path style="fill:#3E3D43;" d="M382.816,454.422c6.954-4.014,12.609-0.792,12.631,7.198c0.023,7.99-5.595,17.721-12.549,21.736
	c-6.954,4.014-12.609,0.792-12.632-7.198C370.244,468.168,375.864,458.437,382.816,454.422z"/>
<g>
</g>
<g>
</g>
<g>
</g>
<g>
</g>
<g>
</g>
<g>
</g>
<g>
</g>
<g>
</g>
<g>
</g>
<g>
</g>
<g>
</g>
<g>
</g>
<g>
</g>
<g>
</g>
<g>
</g>
</svg>
