<?xml version="1.0" encoding="iso-8859-1"?>
<!-- Generator: Adobe Illustrator 19.0.0, SVG Export Plug-In . SVG Version: 6.00 Build 0)  -->
<svg version="1.1" id="Layer_1" xmlns="http://www.w3.org/2000/svg" xmlns:xlink="http://www.w3.org/1999/xlink" x="0px" y="0px"
	 viewBox="0 0 512.001 512.001" style="enable-background:new 0 0 512.001 512.001;" xml:space="preserve">
<path style="fill:#C6C5CB;" d="M511.989,278.714c0.121-2.961-1.771-5.948-5.686-8.208L221.653,106.163
	c-7.561-4.366-19.776-4.366-27.285-0.002L5.636,215.841c-3.744,2.176-5.611,5.025-5.607,7.876c0-0.009-0.001-0.018-0.001-0.027
	L0,233.58c-0.008,2.879,1.892,5.762,5.697,7.958L290.346,405.88c7.561,4.366,19.776,4.366,27.289,0l188.733-109.679
	c3.729-2.167,5.597-5.004,5.605-7.845l0.028-9.891C511.999,278.548,511.992,278.631,511.989,278.714z"/>
<path style="fill:#D8D8DA;" d="M506.289,270.462L221.639,106.121c-7.561-4.366-19.777-4.366-27.288,0L5.622,215.798
	c-7.512,4.366-7.472,11.441,0.089,15.806L290.36,395.947c7.561,4.366,19.777,4.366,27.288,0L506.376,286.27
	C513.889,281.904,513.85,274.828,506.289,270.462"/>
<polygon style="fill:#1D1D1F;" points="379.57,359.963 67.79,179.71 27.518,203.112 339.298,383.367 "/>
<path style="fill:#ACABB1;" d="M192.16,189.788c-7.254-4.188-7.291-10.975-0.086-15.163c7.207-4.188,18.923-4.188,26.177,0
	c7.249,4.185,7.286,10.972,0.08,15.16C211.125,193.973,199.408,193.973,192.16,189.788 M263.308,168.171
	c-22.835-13.184-59.731-13.18-82.413,0c-22.682,13.182-22.567,34.552,0.269,47.737c17.514,10.112,43.305,12.465,64.608,7.063
	l71.715,41.405l30.552,0.297l-0.612-17.696l-10.276-5.933l-17.005-0.711l-1.287-9.85l-0.01-0.006l-17.005-0.711l-1.287-9.85
	l-0.01-0.006l-17.005-0.711l-1.287-9.85l-6.542-3.777C284.968,193.214,280.822,178.282,263.308,168.171"/>
<path style="fill:#57565C;" d="M304.682,373.436l-7.042-4.066l-19.109,11.105l7.042,4.066L304.682,373.436 M310.352,376.709
	l-19.109,11.105l21.92,1.586L310.352,376.709"/>
<g>
</g>
<g>
</g>
<g>
</g>
<g>
</g>
<g>
</g>
<g>
</g>
<g>
</g>
<g>
</g>
<g>
</g>
<g>
</g>
<g>
</g>
<g>
</g>
<g>
</g>
<g>
</g>
<g>
</g>
</svg>
